<?xml version="1.0" encoding="utf-8" standalone="yes"?>
<!DOCTYPE svg PUBLIC "-//W3C//DTD SVG 1.1//EN" "http://www.w3.org/Graphics/SVG/1.1/DTD/svg11.dtd">
<svg version="1.1" xmlns="http://www.w3.org/2000/svg" xmlns:xlink="http://www.w3.org/1999/xlink" width="691" height="1036" viewBox="0 0 691 1036" style="fill:none; stroke:none; fill-rule:evenodd; clip-rule:evenodd; stroke-linecap:round; stroke-linejoin:round; stroke-miterlimit:1.5;">
<style class="text-font-style fontImports" data-font-family="Roboto">
@import url(https://fonts.googleapis.com/css2?family=Roboto:wght@400;700&amp;display=block);
</style>
<style class="text-font-style">
@import url(https://app.napkin.ai/fonts/font-face.web.napkin-fallback.css);
@import url(https://app.napkin.ai/fonts/font-face.web.shantell-sans.css);
@import url(https://app.napkin.ai/fonts/font-face.web.roboto.css);
</style>
<rect id="" x="0" y="0" width="690.438" height="1035.656" style="fill:#ffffff;"></rect>
<g id="items" style="isolation:isolate;">
<g id="blend" style="mix-blend-mode:normal;">
<g id="g-root-tf_dcz0dalpnnyn-fill" data-item-order="-466045" transform="translate(0.0, 292.828125)">
<g id="tf_dcz0dalpnnyn-fill-merged" stroke="none" fill="#ffffff" fill-opacity="1.0">
<g>
<path d="M0 0 H690.44 V450 H0 V0"></path>
</g>
</g>
</g>
<g id="g-root-tf_dcz0dalpnnyn-stroke" data-item-order="-466045" transform="translate(0.0, 292.828125)"></g>
<g id="g-root-sy_3_cu_92rov2lq4jd9-fill" data-item-order="-92154" transform="translate(331.78125, 444.828125)">
<g id="sy_3_cu_92rov2lq4jd9-fill-merged" stroke="none" fill="url(#gradient-b6b6b6-242349474)" fill-opacity="1.0">
<g>
<path d="M10 226.009C39.147 204.116 58 169.26 58 130C58 90.74 39.147 55.884 10 33.991C30.056 18.927 54.985 10 82 10C148.274 10 202 63.726 202 130C202 196.274 148.274 250 82 250C54.985 250 30.056 241.073 10 226.009"></path>
</g>
</g>
</g>
<g id="g-root-sy_3_cu_92rov2lq4jd9-stroke" data-item-order="-92154" transform="translate(331.78125, 444.828125)">
<g id="sy_3_cu_92rov2lq4jd9-stroke" fill="none" stroke-linecap="round" stroke-linejoin="round" stroke-miterlimit="4" stroke="#484848" stroke-width="2" stroke-opacity="1.0">
<g>
<path d="M 10 226.009C 39.147 204.116 58 169.26 58 130C 58 90.74 39.147 55.884 10 33.991C 30.056 18.927 54.985 10 82 10C 148.274 10 202 63.726 202 130C 202 196.274 148.274 250 82 250C 54.985 250 30.056 241.073 10 226.009Z"></path>
</g>
</g>
</g>
<g id="g-root-sy_1_cu_1lws87ylq4jcz-fill" data-item-order="-92150" transform="translate(139.78125, 444.828125)">
<g id="sy_1_cu_1lws87ylq4jcz-fill-merged" stroke="none" fill="url(#gradient-b6b6b6-242349474)" fill-opacity="1.0">
<g>
<path d="M202 33.991C172.853 55.884 154 90.74 154 130C154 169.26 172.853 204.116 202 226.009C181.944 241.073 157.015 250 130 250C63.726 250 10 196.274 10 130C10 63.726 63.726 10 130 10C157.015 10 181.944 18.927 202 33.991"></path>
</g>
</g>
</g>
<g id="g-root-sy_1_cu_1lws87ylq4jcz-stroke" data-item-order="-92150" transform="translate(139.78125, 444.828125)">
<g id="sy_1_cu_1lws87ylq4jcz-stroke" fill="none" stroke-linecap="round" stroke-linejoin="round" stroke-miterlimit="4" stroke="#484848" stroke-width="2" stroke-opacity="1.0">
<g>
<path d="M 202 33.991C 172.853 55.884 154 90.74 154 130C 154 169.26 172.853 204.116 202 226.009C 181.944 241.073 157.015 250 130 250C 63.726 250 10 196.274 10 130C 10 63.726 63.726 10 130 10C 157.015 10 181.944 18.927 202 33.991Z"></path>
</g>
</g>
</g>
<g id="g-root-sy_2_cu_me878elq4jk1-fill" data-item-order="-92146" transform="translate(283.78125, 468.828125)">
<defs>
<linearGradient id="gradient-b6b6b6-242349474" x2="0" y2="1">
<stop offset="0" stop-color="#c8c8c8"></stop>
<stop offset="1" stop-color="#a3a3a3"></stop>
</linearGradient>
<linearGradient id="gradient-4dd3ff-403310036" x2="0" y2="1">
<stop offset="0" stop-color="#7fdfff"></stop>
<stop offset="1" stop-color="#1ac6ff"></stop>
</linearGradient>
</defs>
<g id="sy_2_cu_me878elq4jk1-fill-merged" stroke="none" fill="url(#gradient-4dd3ff-403310036)" fill-opacity="1.0">
<g>
<path d="M58 202.018C87.147 180.125 106 145.268 106 106.009C106 66.749 87.147 31.893 58 10C28.853 31.893 10 66.749 10 106.009C10 145.268 28.853 180.125 58 202.018"></path>
</g>
</g>
</g>
<g id="g-root-sy_2_cu_me878elq4jk1-stroke" data-item-order="-92146" transform="translate(283.78125, 468.828125)">
<g id="sy_2_cu_me878elq4jk1-stroke" fill="none" stroke-linecap="round" stroke-linejoin="round" stroke-miterlimit="4" stroke="#484848" stroke-width="2" stroke-opacity="1.0">
<g>
<path d="M 58 202.018C 87.147 180.125 106 145.268 106 106.009C 106 66.749 87.147 31.893 58 10C 28.853 31.893 10 66.749 10 106.009C 10 145.268 28.853 180.125 58 202.018Z"></path>
</g>
</g>
</g>
<g id="g-root-tx_breakmod_1usf8gulq4jkf-fill" data-item-order="0" transform="translate(535.78125, 552.828125)">
<g id="tx_breakmod_1usf8gulq4jkf-fill-merged" stroke="none" fill="#484848" fill-opacity="1.0">
<g>
<text transform="translate(10.0, 10.0)" style="font-size:20px; font-family:'Roboto', napkin-fallback, sans-serif; white-space:pre;">
<tspan x="2" y="24" dominant-baseline="ideographic">Break Modes</tspan>
</text>
</g>
</g>
</g>
<g id="g-root-tx_breakmod_1usf8gulq4jkf-stroke" data-item-order="0" transform="translate(535.78125, 552.828125)"></g>
<g id="g-root-tx_focusmod_v9v7halq4jyb-fill" data-item-order="0" transform="translate(14.0, 552.828125)">
<g id="tx_focusmod_v9v7halq4jyb-fill-merged" stroke="none" fill="#484848" fill-opacity="1.0">
<g>
<text transform="translate(119.78125, 10.0)" style="font-size:20px; font-family:'Roboto', napkin-fallback, sans-serif; white-space:pre;">
<tspan x="-107.78" y="24" dominant-baseline="ideographic">Focus Mode</tspan>
</text>
</g>
</g>
</g>
<g id="g-root-tx_focusmod_v9v7halq4jyb-stroke" data-item-order="0" transform="translate(14.0, 552.828125)"></g>
<g id="g-root-tx_balancin_dil6zilq4k5g-fill" data-item-order="0" transform="translate(150.953125, 330.828125)">
<g id="tx_balancin_dil6zilq4k5g-fill-merged" stroke="none" fill="#484848" fill-opacity="1.0">
<g>
<text transform="translate(188.828125, 10.0)" style="font-size:25px; font-family:'Roboto', napkin-fallback, sans-serif; font-weight:bold; white-space:pre;">
<tspan x="-176.83" y="30" dominant-baseline="ideographic">Balancing Productivity and Rest</tspan>
</text>
</g>
</g>
</g>
<g id="g-root-tx_balancin_dil6zilq4k5g-stroke" data-item-order="0" transform="translate(150.953125, 330.828125)"></g>
<g id="g-root-ic_sit_dil6zilq4kcv-fill" data-item-order="0" transform="translate(415.78125, 540.828125)"></g>
<g id="g-root-ic_sit_dil6zilq4kcv-stroke" data-item-order="0" transform="translate(415.78125, 540.828125)">
<g id="ic_sit_dil6zilq4kcv-stroke" fill="none" stroke-linecap="round" stroke-linejoin="round" stroke-miterlimit="4" stroke="#484848" stroke-width="2" stroke-opacity="1.0">
<g>
<path d="M 25 17.1C 25 19.861423 27.238577 22.1 30 22.1C 32.761421 22.1 35 19.861423 35 17.1C 35 14.338576 32.761421 12.1 30 12.1C 27.238577 12.1 25 14.338576 25 17.1M 32 56.099998C 30.488451 56.083294 29.218807 54.958508 29.02 53.459999L 28.360001 48.099998L 18 48.099998C 17.031124 48.090836 16.126324 47.614292 15.570684 46.820522C 15.015045 46.026752 14.876984 45.013493 15.200001 44.100002L 21.200001 26.1C 21.539944 25.210236 22.282213 24.534771 23.200001 24.280001C 24.105762 24.002254 25.089975 24.181202 25.84 24.76L 32.739998 30C 32.913757 30.128553 33.123863 30.198589 33.34 30.199999L 39 30.200001C 40.656853 30.200001 42 31.543146 42 33.200001C 42 34.856857 40.656853 36.200001 39 36.200001L 33.34 36.200001C 31.825642 36.198563 30.352348 35.707466 29.139999 34.799999L 25.4 32L 22.32 42.200001L 31 42.200001C 32.489265 42.172192 33.770332 43.248291 34 44.720001L 35 52.720001C 35.096409 53.576416 34.824783 54.43351 34.252689 55.078068C 33.680595 55.722626 32.861809 56.09407 32 56.099998ZM 36 36.099998L 57 36.080002M 11 48.099998L 21 48.099998M 57 48.080002L 38 48.099998M 44 36.099998L 38 56.099998M 49 36.080002L 55 56.080002M 16 48.099998L 14 56.099998"></path>
</g>
</g>
</g>
<g id="g-root-ic_rota_zlxv32lq7cw7-fill" data-item-order="0" transform="translate(307.78125, 540.828125)"></g>
<g id="g-root-ic_rota_zlxv32lq7cw7-stroke" data-item-order="0" transform="translate(307.78125, 540.828125)">
<g id="ic_rota_zlxv32lq7cw7-stroke" fill="none" stroke-linecap="round" stroke-linejoin="round" stroke-miterlimit="4" stroke="#484848" stroke-width="2" stroke-opacity="1.0">
<g>
<path d="M 37.700001 18.88282C 40.720802 22.105141 44.950199 23.917679 49.7836 23.917679C 52.200401 23.917679 54.415798 23.5149 56.4296 22.507919M 52.700001 15.89996C 55.099998 17.699961 56.5 20.49996 56.5 23.699959C 56.5 29.299959 52.099998 33.700001 46.5 33.700001C 40.900002 33.700001 36.5 29.299959 36.5 23.699959C 36.5 18.09996 40.900002 13.69996 46.5 13.69996M 10 10M 42.900002 11.499756L 46.5 13.69976L 44.099998 17.69976M 30.5 34.5C 30.5 37.900002 27.9 40.5 24.5 40.5C 21.1 40.5 18.5 37.900002 18.5 34.5L 18.5 31.5C 18.5 28.1 21.1 25.5 24.5 25.5C 27.9 25.5 30.5 28.1 30.5 31.5L 30.5 34.5ZM 22.5 40.1796L 22.5 43.5C 22.5 43.5 18.5 43.5 16.5 45.5C 16.5 45.5 18.5 51.5 23.5 51.5C 26.299999 51.5 27.1 49.299999 28.700001 47.5L 28.700001 38.851601M 36.5 44.5C 38.5 46.700001 39.5 49.5 39.5 52.5L 39.5 56.5M 16.5 45.5C 16.5 45.5 11.5 48.5 11.5 56.5M 28.8999 47.5C 32.900002 43.5 36.5 44.5 36.5 44.5L 36.5 36.5M 24.5 25.5L 30.5 25.5"></path>
</g>
</g>
</g>
<g id="g-root-ic_desk_1cuwk9qlpmaz1-fill" data-item-order="0" transform="translate(199.78125, 540.828125)"></g>
<g id="g-root-ic_desk_1cuwk9qlpmaz1-stroke" data-item-order="0" transform="translate(199.78125, 540.828125)">
<g id="ic_desk_1cuwk9qlpmaz1-stroke" fill="none" stroke-linecap="round" stroke-linejoin="round" stroke-miterlimit="4" stroke="#484848" stroke-width="2" stroke-opacity="1.0">
<g>
<path d="M 57 57L 11 57M 18.015999 29.992001C 18.016001 33.857994 21.150007 36.992001 25.016001 36.992001C 28.881994 36.992001 32.015999 33.857994 32.015999 29.992001C 32.015999 26.126007 28.881994 22.992001 25.016001 22.992001C 21.150007 22.992001 18.016001 26.126007 18.016001 29.992001ZM 37 53L 37 47C 37 43.686291 34.313709 41 31 41L 29 41L 25 48L 21 41L 19 41C 15.686292 41 13 43.686291 13 47L 13 53M 41 19C 41 23.418278 44.581722 27 49 27C 53.418278 27 57 23.418278 57 19C 57 14.581722 53.418278 11 49 11C 44.581722 11 41 14.581722 41 19ZM 49 23L 49 19M 49 15.08C 48.723858 15.08 48.5 15.303858 48.5 15.58C 48.5 15.856142 48.723858 16.08 49 16.08C 49.276142 16.08 49.5 15.856142 49.5 15.58C 49.5 15.303858 49.276142 15.08 49 15.08M 46 57L 46 56C 46 53.790859 47.790859 52 50 52C 52.209141 52 54 53.790859 54 56L 54 57M 50 52L 50 50"></path>
</g>
</g>
</g>
<g id="g-root-tx_balanced_1hbcjhalpnmrn-fill" data-item-order="0" transform="translate(233.421875, 408.828125)">
<g id="tx_balanced_1hbcjhalpnmrn-fill-merged" stroke="none" fill="#484848" fill-opacity="1.0">
<g>
<text transform="translate(106.359375, 10.0)" style="font-size:20px; font-family:'Roboto', napkin-fallback, sans-serif; white-space:pre;">
<tspan x="-94.36" y="24" dominant-baseline="ideographic">Balanced Productivity</tspan>
</text>
</g>
</g>
</g>
<g id="g-root-tx_balanced_1hbcjhalpnmrn-stroke" data-item-order="0" transform="translate(233.421875, 408.828125)"></g>
</g>
</g>
<path id="w24z32lpnpc8" d="M65.283 12.757a.35.35 0 0 0 .584.157l5.203-5.141-6.183 3.523.396 1.461zm-2.216-11.7a.35.35 0 0 0-.522.305v3.111l3.276-1.868-2.754-1.548zm3.728 2.105l-4.25 2.421v2.445l6.391-3.644-2.141-1.222zm4.708 3.303a.35.35 0 0 0 0-.609l-1.592-.9-7.365 4.199v1.782a.35.35 0 0 0 .523.305l8.435-4.777z M44.542 2.513c0-.433.355-.783.792-.783s.792.35.792.783-.355.783-.792.783-.792-.35-.792-.783zm59.171 0c0-.433.355-.783.792-.783s.792.35.792.783-.355.783-.792.783-.792-.35-.792-.783zm-85.951 7.636h-1.27v-.487c-.276.201-.864.609-1.881.609-1.202 0-2.274-.794-2.137-2.078.118-1.106 1.153-1.584 1.848-1.727l2.17-.345c0-.539-.29-.956-1.064-1.006s-1.21.305-1.571 1.017l-1.124-.605c1.218-2.631 5.029-1.764 5.029.414v4.207zm-1.27-2.86c.006.396-.062 1.112-.819 1.59-.587.37-1.841.299-1.903-.395-.049-.555.461-.791.906-.898l1.816-.297zm72.662 2.86h-1.27v-.487c-.276.201-.864.609-1.881.609-1.202 0-2.274-.794-2.137-2.078.118-1.106 1.153-1.584 1.848-1.727l2.17-.345c0-.539-.29-.956-1.064-1.006s-1.21.305-1.571 1.017l-1.124-.605c1.218-2.631 5.029-1.764 5.029.414v4.207zm-1.27-2.86c.006.396-.062 1.112-.82 1.59-.587.37-1.841.299-1.903-.395-.049-.555.461-.791.906-.898l1.816-.297zM99.096 10.149H97.85v-8.45h1.246v4.895l2.68-2.559h1.738l-2.633 2.535 2.715 3.578h-1.556l-2.077-2.707-.867.844v1.863zm6.053-6.114h-1.255v6.113h1.255V4.035zm-59.2 0h-1.255v6.113h1.255V4.035zm5.584 6.113V1.697h1.255v2.695c.361-.346 1-.485 1.47-.485 1.452 0 2.477 1.082 2.457 2.448v3.792h-1.27v-3.68c0-.408-.214-1.339-1.315-1.339-.968 0-1.342.756-1.342 1.339v3.681h-1.255zm-4.76-4.894V4.039h.621a.45.45 0 0 0 .45-.45v-.855h1.251v1.305h1.309v1.215h-1.309v3.109c0 .293.105.664.648.664.365 0 .531-.035.736-.07v1.137s-.361.113-.857.113c-1.398 0-1.777-1.051-1.777-1.788V5.254h-1.071zM36.528 4.039h-1.394l2.191 6.106h1.125l1.234-3.918 1.238 3.918h1.129l2.188-6.106h-1.383l-1.359 3.93-1.256-3.93h-1.124l-1.242 3.957-1.348-3.957zM26.212 7.141c-.02 1.566 1.187 3.129 3.223 3.129 1.566 0 2.383-.918 2.734-1.719L31.172 8c-.315.399-.801 1.094-1.738 1.094-1.145 0-1.825-.781-1.891-1.52h4.625c.074-.284.148-.995-.03-1.559-.336-1.064-1.221-2.102-2.839-2.102s-3.088 1.152-3.088 3.227zm1.363-.75h3.348c-.055-.43-.566-1.301-1.623-1.301a1.79 1.79 0 0 0-1.725 1.301zm-8.758.75c.038 1.758 1.277 3.133 3.145 3.133 1.074 0 1.723-.477 1.961-.672v.547h1.242V1.703h-1.258v2.888c-.414-.36-1.062-.68-1.93-.68-1.91 0-3.198 1.473-3.16 3.23zm1.309-.08c0 1.119.723 1.978 1.836 1.978a1.88 1.88 0 0 0 1.94-1.904c0-1.371-1.011-1.99-1.972-1.99s-1.805.798-1.805 1.916zm76.683-.028C96.771 5.275 95.532 3.9 93.664 3.9c-1.074 0-1.723.477-1.961.672v-.547h-1.242v8.22h1.258V9.583c.414.36 1.063.68 1.93.68 1.91 0 3.198-1.473 3.16-3.23zm-1.309.08c0-1.119-.723-1.978-1.836-1.978a1.88 1.88 0 0 0-1.94 1.904c0 1.371 1.011 1.99 1.972 1.99S95.5 8.231 95.5 7.113zM106.441 10.173V4.036h1.254v.382c.361-.346 1-.485 1.47-.485 1.452 0 2.477 1.082 2.457 2.448v3.792h-1.27V6.492c0-.408-.214-1.339-1.315-1.339-.969 0-1.342.756-1.342 1.339v3.681h-1.254zm-30.383-.021V1.824h1.084l4.215 5.777V1.824h1.32v8.328h-1.094l-4.207-5.796v5.796h-1.319zM5.24 10.149H4V2.377h1.014l2.664 3.597 2.654-3.592h1.03v7.766h-1.256V4.762L7.678 8.068 5.24 4.742v5.407z" transform="translate(554.4375, 1001.65625)" fill="#80808088" stroke="none"></path>
</svg>