<?xml version="1.0" encoding="utf-8" standalone="yes"?>
<!DOCTYPE svg PUBLIC "-//W3C//DTD SVG 1.1//EN" "http://www.w3.org/Graphics/SVG/1.1/DTD/svg11.dtd">
<svg version="1.1" xmlns="http://www.w3.org/2000/svg" xmlns:xlink="http://www.w3.org/1999/xlink" width="654" height="450" viewBox="0 0 654 450" style="fill:none; stroke:none; fill-rule:evenodd; clip-rule:evenodd; stroke-linecap:round; stroke-linejoin:round; stroke-miterlimit:1.5;">
<style class="text-font-style fontImports" data-font-family="Roboto">
@import url(https://fonts.googleapis.com/css2?family=Roboto:wght@400;700&amp;display=block);
</style>
<style class="text-font-style">
@import url(https://app.napkin.ai/fonts/font-face.web.napkin-fallback.css);
@import url(https://app.napkin.ai/fonts/font-face.web.shantell-sans.css);
@import url(https://app.napkin.ai/fonts/font-face.web.roboto.css);
</style>
<rect id="" x="0" y="0" width="653.453" height="450" style="fill:#ffffff;"></rect>
<g id="items" style="isolation:isolate;">
<g id="blend" style="mix-blend-mode:normal;">
<g id="g-root-tf_8wjanii3vqbq-fill" data-item-order="-441081">
<g id="tf_8wjanii3vqbq-fill-merged" stroke="none" fill="#ffffff" fill-opacity="1.0">
<g>
<path d="M0 0 H653.45 V450 H0 V0"></path>
</g>
</g>
</g>
<g id="g-root-tf_8wjanii3vqbq-stroke" data-item-order="-441081"></g>
<g id="g-root-sy_3_cu_4j7lpqi3ym0y-fill" data-item-order="-92154" transform="translate(320.140625, 152.0)">
<g id="sy_3_cu_4j7lpqi3ym0y-fill-merged" stroke="none" fill="url(#gradient-b6b6b6-242349474)" fill-opacity="1.0">
<g>
<path d="M10 226.009C39.147 204.116 58 169.26 58 130C58 90.74 39.147 55.884 10 33.991C30.056 18.927 54.985 10 82 10C148.274 10 202 63.726 202 130C202 196.274 148.274 250 82 250C54.985 250 30.056 241.073 10 226.009"></path>
</g>
</g>
</g>
<g id="g-root-sy_3_cu_4j7lpqi3ym0y-stroke" data-item-order="-92154" transform="translate(320.140625, 152.0)">
<g id="sy_3_cu_4j7lpqi3ym0y-stroke" fill="none" stroke-linecap="round" stroke-linejoin="round" stroke-miterlimit="4" stroke="#484848" stroke-width="2" stroke-opacity="1.0">
<g>
<path d="M 10 226.009C 39.147 204.116 58 169.26 58 130C 58 90.74 39.147 55.884 10 33.991C 30.056 18.927 54.985 10 82 10C 148.274 10 202 63.726 202 130C 202 196.274 148.274 250 82 250C 54.985 250 30.056 241.073 10 226.009Z"></path>
</g>
</g>
</g>
<g id="g-root-sy_1_cu_hval66i3yj2j-fill" data-item-order="-92150" transform="translate(128.140625, 152.0)">
<g id="sy_1_cu_hval66i3yj2j-fill-merged" stroke="none" fill="url(#gradient-b6b6b6-242349474)" fill-opacity="1.0">
<g>
<path d="M202 33.991C172.853 55.884 154 90.74 154 130C154 169.26 172.853 204.116 202 226.009C181.944 241.073 157.015 250 130 250C63.726 250 10 196.274 10 130C10 63.726 63.726 10 130 10C157.015 10 181.944 18.927 202 33.991"></path>
</g>
</g>
</g>
<g id="g-root-sy_1_cu_hval66i3yj2j-stroke" data-item-order="-92150" transform="translate(128.140625, 152.0)">
<g id="sy_1_cu_hval66i3yj2j-stroke" fill="none" stroke-linecap="round" stroke-linejoin="round" stroke-miterlimit="4" stroke="#484848" stroke-width="2" stroke-opacity="1.0">
<g>
<path d="M 202 33.991C 172.853 55.884 154 90.74 154 130C 154 169.26 172.853 204.116 202 226.009C 181.944 241.073 157.015 250 130 250C 63.726 250 10 196.274 10 130C 10 63.726 63.726 10 130 10C 157.015 10 181.944 18.927 202 33.991Z"></path>
</g>
</g>
</g>
<g id="g-root-sy_2_cu_1lto4a6i3yj2d-fill" data-item-order="-92146" transform="translate(272.140625, 176.0)">
<defs>
<linearGradient id="gradient-b6b6b6-242349474" x2="0" y2="1">
<stop offset="0" stop-color="#c8c8c8"></stop>
<stop offset="1" stop-color="#a3a3a3"></stop>
</linearGradient>
<linearGradient id="gradient-4dd3ff-403310036" x2="0" y2="1">
<stop offset="0" stop-color="#7fdfff"></stop>
<stop offset="1" stop-color="#1ac6ff"></stop>
</linearGradient>
</defs>
<g id="sy_2_cu_1lto4a6i3yj2d-fill-merged" stroke="none" fill="url(#gradient-4dd3ff-403310036)" fill-opacity="1.0">
<g>
<path d="M58 202.018C87.147 180.125 106 145.268 106 106.009C106 66.749 87.147 31.893 58 10C28.853 31.893 10 66.749 10 106.009C10 145.268 28.853 180.125 58 202.018"></path>
</g>
</g>
</g>
<g id="g-root-sy_2_cu_1lto4a6i3yj2d-stroke" data-item-order="-92146" transform="translate(272.140625, 176.0)">
<g id="sy_2_cu_1lto4a6i3yj2d-stroke" fill="none" stroke-linecap="round" stroke-linejoin="round" stroke-miterlimit="4" stroke="#484848" stroke-width="2" stroke-opacity="1.0">
<g>
<path d="M 58 202.018C 87.147 180.125 106 145.268 106 106.009C 106 66.749 87.147 31.893 58 10C 28.853 31.893 10 66.749 10 106.009C 10 145.268 28.853 180.125 58 202.018Z"></path>
</g>
</g>
</g>
<g id="g-root-tx_appleios_4ju2sui3yjnm-fill" data-item-order="0" transform="translate(524.140625, 236.0)">
<g id="tx_appleios_4ju2sui3yjnm-fill-merged" stroke="none" fill="#484848" fill-opacity="1.0">
<g>
<text transform="translate(10.0, 34.0)" style="font-size:20px; font-family:'Roboto', napkin-fallback, sans-serif; white-space:pre;">
<tspan x="2" y="0" dominant-baseline="ideographic">Apple iOS </tspan>
<tspan x="2" y="24" dominant-baseline="ideographic">Design </tspan>
<tspan x="2" y="48" dominant-baseline="ideographic">Principles</tspan>
</text>
</g>
</g>
</g>
<g id="g-root-tx_appleios_4ju2sui3yjnm-stroke" data-item-order="0" transform="translate(524.140625, 236.0)"></g>
<g id="g-root-tx_minimali_v3090ui41ero-fill" data-item-order="0" transform="translate(14.0, 248.0)">
<g id="tx_minimali_v3090ui41ero-fill-merged" stroke="none" fill="#484848" fill-opacity="1.0">
<g>
<text transform="translate(108.140625, 22.0)" style="font-size:20px; font-family:'Roboto', napkin-fallback, sans-serif; white-space:pre;">
<tspan x="-96.14" y="12" dominant-baseline="ideographic">Minimalist </tspan>
<tspan x="-92.27" y="36" dominant-baseline="ideographic">Aesthetics</tspan>
</text>
</g>
</g>
</g>
<g id="g-root-tx_minimali_v3090ui41ero-stroke" data-item-order="0" transform="translate(14.0, 248.0)"></g>
<g id="g-root-tx_theessen_1ulka0ei41eyt-fill" data-item-order="0" transform="translate(22.0390625, 38.0)">
<g id="tx_theessen_1ulka0ei41eyt-fill-merged" stroke="none" fill="#484848" fill-opacity="1.0">
<g>
<text transform="translate(306.1015625, 10.0)" style="font-size:25px; font-family:'Roboto', napkin-fallback, sans-serif; font-weight:bold; white-space:pre;">
<tspan x="-294.1" y="30" dominant-baseline="ideographic">The Essence of Minimalist Chrome Extension Design</tspan>
</text>
</g>
</g>
</g>
<g id="g-root-tx_theessen_1ulka0ei41eyt-stroke" data-item-order="0" transform="translate(22.0390625, 38.0)"></g>
<g id="g-root-ic_ligh_1q6d8z2i41c76-fill" data-item-order="0" transform="translate(404.140625, 248.0)"></g>
<g id="g-root-ic_ligh_1q6d8z2i41c76-stroke" data-item-order="0" transform="translate(404.140625, 248.0)">
<g id="ic_ligh_1q6d8z2i41c76-stroke" fill="none" stroke-linecap="round" stroke-linejoin="round" stroke-miterlimit="4" stroke="#484848" stroke-width="2" stroke-opacity="1.0">
<g>
<path d="M 11 34C 11 46.702549 21.297451 57 34 57C 46.702549 57 57 46.702549 57 34C 57 21.297451 46.702549 11 34 11C 21.297451 11 11 21.297451 11 34ZM 39.524002 43.858002C 42.686272 43.905781 45.628998 42.24609 47.224087 39.515167C 48.81918 36.784245 48.81918 33.405754 47.224087 30.674831C 45.628998 27.943907 42.686272 26.284218 39.523998 26.331999C 37.076805 26.321268 35.068405 28.265739 35 30.712L 35 39.475998C 35.067345 41.923046 37.07605 43.868706 39.524002 43.857998ZM 31.062 35L 21 35M 31 29L 21 29M 31.062 41L 21 41"></path>
</g>
</g>
</g>
<g id="g-root-ic_2_mg3vzii48ft1-fill" data-item-order="0" transform="translate(296.140625, 248.0)"></g>
<g id="g-root-ic_2_mg3vzii48ft1-stroke" data-item-order="0" transform="translate(296.140625, 248.0)">
<g id="ic_2_mg3vzii48ft1-stroke" fill="none" stroke-linecap="round" stroke-linejoin="round" stroke-miterlimit="4" stroke="#484848" stroke-width="2" stroke-opacity="1.0">
<g>
<path d="M 52.625999 32.035999C 54.352688 41.07254 49.988262 50.179363 41.8629 54.494328C 33.737534 58.809296 23.748602 57.324806 17.229206 50.833431C 10.709812 44.342056 9.18231 34.359612 13.462238 26.215736C 17.742167 18.071861 26.830109 13.668252 35.874001 15.356M 32.001999 25L 32.001999 36L 25.228001 43.998001M 57 18C 57 17.447716 56.552284 17 56 17L 51 17L 51 12C 51 11.447716 50.552284 11 50 11L 46 11C 45.447716 11 45 11.447716 45 12L 45 17L 40 17C 39.447716 17 39 17.447716 39 18L 39 22C 39 22.552284 39.447716 23 40 23L 45 23L 45 28C 45 28.552284 45.447716 29 46 29L 50 29C 50.552284 29 51 28.552284 51 28L 51 23L 56 23C 56.552284 23 57 22.552284 57 22Z"></path>
</g>
</g>
</g>
<g id="g-root-ic_sama_13yn99qi4ckqr-fill" data-item-order="0" transform="translate(188.140625, 248.0)"></g>
<g id="g-root-ic_sama_13yn99qi4ckqr-stroke" data-item-order="0" transform="translate(188.140625, 248.0)">
<g id="ic_sama_13yn99qi4ckqr-stroke" fill="none" stroke-linecap="round" stroke-linejoin="round" stroke-miterlimit="4" stroke="#484848" stroke-width="2" stroke-opacity="1.0">
<g>
<path d="M 13 11L 55 11C 55 11 57 11 57 13L 57 55C 57 55 57 57 55 57L 13 57C 13 57 11 57 11 55L 11 13C 11 13 11 11 13 11M 24 48L 44 48M 40.889999 43L 40.889999 36.056C 40.889999 34.368 42.257999 33 43.945999 33L 43.945999 33C 45.633999 33 47 34.368 47 36.056L 47 43M 34.779999 43L 34.779999 36.056C 34.779999 34.368 36.146 33 37.834 33L 37.834 33C 39.521999 33 40.889999 34.368 40.889999 36.056L 40.889999 43M 34.779999 36.334L 34.779999 33M 31 28C 30.382 26.254 28.459999 25 26.5 25C 24.108 25 22 26.940001 22 29.332001C 22.000437 31.194914 23.268627 32.818497 25.076 33.27L 27.615999 33.905998C 29.604342 34.402519 30.999565 36.188602 31 38.237999L 31 38.501999C 31 40.987282 28.985281 43.001999 26.5 43.001999C 24.540001 43.001999 22.618 41.748001 22 40.001999"></path>
</g>
</g>
</g>
<g id="g-root-tx_modernus_1cuacoei3vrwu-fill" data-item-order="0" transform="translate(222.2421875, 92.0)">
<g id="tx_modernus_1cuacoei3vrwu-fill-merged" stroke="none" fill="#484848" fill-opacity="1.0">
<g>
<text transform="translate(105.8984375, 22.0)" style="font-size:20px; font-family:'Roboto', napkin-fallback, sans-serif; white-space:pre;">
<tspan x="-93.9" y="12" dominant-baseline="ideographic">Modern, User-Centric </tspan>
<tspan x="-41.52" y="36" dominant-baseline="ideographic">Extension</tspan>
</text>
</g>
</g>
</g>
<g id="g-root-tx_modernus_1cuacoei3vrwu-stroke" data-item-order="0" transform="translate(222.2421875, 92.0)"></g>
</g>
</g>
<path id="whssrzii3vsi2" d="M65.283 12.757a.35.35 0 0 0 .584.157l5.203-5.141-6.183 3.523.396 1.461zm-2.216-11.7a.35.35 0 0 0-.522.305v3.111l3.276-1.868-2.754-1.548zm3.728 2.105l-4.25 2.421v2.445l6.391-3.644-2.141-1.222zm4.708 3.303a.35.35 0 0 0 0-.609l-1.592-.9-7.365 4.199v1.782a.35.35 0 0 0 .523.305l8.435-4.777z M44.542 2.513c0-.433.355-.783.792-.783s.792.35.792.783-.355.783-.792.783-.792-.35-.792-.783zm59.171 0c0-.433.355-.783.792-.783s.792.35.792.783-.355.783-.792.783-.792-.35-.792-.783zm-85.951 7.636h-1.27v-.487c-.276.201-.864.609-1.881.609-1.202 0-2.274-.794-2.137-2.078.118-1.106 1.153-1.584 1.848-1.727l2.17-.345c0-.539-.29-.956-1.064-1.006s-1.21.305-1.571 1.017l-1.124-.605c1.218-2.631 5.029-1.764 5.029.414v4.207zm-1.27-2.86c.006.396-.062 1.112-.819 1.59-.587.37-1.841.299-1.903-.395-.049-.555.461-.791.906-.898l1.816-.297zm72.662 2.86h-1.27v-.487c-.276.201-.864.609-1.881.609-1.202 0-2.274-.794-2.137-2.078.118-1.106 1.153-1.584 1.848-1.727l2.17-.345c0-.539-.29-.956-1.064-1.006s-1.21.305-1.571 1.017l-1.124-.605c1.218-2.631 5.029-1.764 5.029.414v4.207zm-1.27-2.86c.006.396-.062 1.112-.82 1.59-.587.37-1.841.299-1.903-.395-.049-.555.461-.791.906-.898l1.816-.297zM99.096 10.149H97.85v-8.45h1.246v4.895l2.68-2.559h1.738l-2.633 2.535 2.715 3.578h-1.556l-2.077-2.707-.867.844v1.863zm6.053-6.114h-1.255v6.113h1.255V4.035zm-59.2 0h-1.255v6.113h1.255V4.035zm5.584 6.113V1.697h1.255v2.695c.361-.346 1-.485 1.47-.485 1.452 0 2.477 1.082 2.457 2.448v3.792h-1.27v-3.68c0-.408-.214-1.339-1.315-1.339-.968 0-1.342.756-1.342 1.339v3.681h-1.255zm-4.76-4.894V4.039h.621a.45.45 0 0 0 .45-.45v-.855h1.251v1.305h1.309v1.215h-1.309v3.109c0 .293.105.664.648.664.365 0 .531-.035.736-.07v1.137s-.361.113-.857.113c-1.398 0-1.777-1.051-1.777-1.788V5.254h-1.071zM36.528 4.039h-1.394l2.191 6.106h1.125l1.234-3.918 1.238 3.918h1.129l2.188-6.106h-1.383l-1.359 3.93-1.256-3.93h-1.124l-1.242 3.957-1.348-3.957zM26.212 7.141c-.02 1.566 1.187 3.129 3.223 3.129 1.566 0 2.383-.918 2.734-1.719L31.172 8c-.315.399-.801 1.094-1.738 1.094-1.145 0-1.825-.781-1.891-1.52h4.625c.074-.284.148-.995-.03-1.559-.336-1.064-1.221-2.102-2.839-2.102s-3.088 1.152-3.088 3.227zm1.363-.75h3.348c-.055-.43-.566-1.301-1.623-1.301a1.79 1.79 0 0 0-1.725 1.301zm-8.758.75c.038 1.758 1.277 3.133 3.145 3.133 1.074 0 1.723-.477 1.961-.672v.547h1.242V1.703h-1.258v2.888c-.414-.36-1.062-.68-1.93-.68-1.91 0-3.198 1.473-3.16 3.23zm1.309-.08c0 1.119.723 1.978 1.836 1.978a1.88 1.88 0 0 0 1.94-1.904c0-1.371-1.011-1.99-1.972-1.99s-1.805.798-1.805 1.916zm76.683-.028C96.771 5.275 95.532 3.9 93.664 3.9c-1.074 0-1.723.477-1.961.672v-.547h-1.242v8.22h1.258V9.583c.414.36 1.063.68 1.93.68 1.91 0 3.198-1.473 3.16-3.23zm-1.309.08c0-1.119-.723-1.978-1.836-1.978a1.88 1.88 0 0 0-1.94 1.904c0 1.371 1.011 1.99 1.972 1.99S95.5 8.231 95.5 7.113zM106.441 10.173V4.036h1.254v.382c.361-.346 1-.485 1.47-.485 1.452 0 2.477 1.082 2.457 2.448v3.792h-1.27V6.492c0-.408-.214-1.339-1.315-1.339-.969 0-1.342.756-1.342 1.339v3.681h-1.254zm-30.383-.021V1.824h1.084l4.215 5.777V1.824h1.32v8.328h-1.094l-4.207-5.796v5.796h-1.319zM5.24 10.149H4V2.377h1.014l2.664 3.597 2.654-3.592h1.03v7.766h-1.256V4.762L7.678 8.068 5.24 4.742v5.407z" transform="translate(520.453125, 419.0)" fill="#80808088" stroke="none"></path>
</svg>