<?xml version="1.0" encoding="utf-8" standalone="yes"?>
<!DOCTYPE svg PUBLIC "-//W3C//DTD SVG 1.1//EN" "http://www.w3.org/Graphics/SVG/1.1/DTD/svg11.dtd">
<svg version="1.1" xmlns="http://www.w3.org/2000/svg" xmlns:xlink="http://www.w3.org/1999/xlink" width="900" height="786" viewBox="0 0 900 786" style="fill:none; stroke:none; fill-rule:evenodd; clip-rule:evenodd; stroke-linecap:round; stroke-linejoin:round; stroke-miterlimit:1.5;">
<style class="text-font-style fontImports" data-font-family="Roboto">
@import url(https://fonts.googleapis.com/css2?family=Roboto:wght@400;700&amp;display=block);
</style>
<style class="text-font-style">
@import url(https://app.napkin.ai/fonts/font-face.web.napkin-fallback.css);
@import url(https://app.napkin.ai/fonts/font-face.web.shantell-sans.css);
@import url(https://app.napkin.ai/fonts/font-face.web.roboto.css);
</style>
<rect id="" x="0" y="0" width="900" height="786" style="fill:#ffffff;"></rect>
<g id="items" style="isolation:isolate;">
<g id="blend" style="mix-blend-mode:normal;">
<g id="g-root-tf_143052mio7jsy-fill" data-item-order="-1061100">
<g id="tf_143052mio7jsy-fill-merged" stroke="none" fill="#ffffff" fill-opacity="1.0">
<g>
<path d="M0 0 H900 V786 H0 V0"></path>
</g>
</g>
</g>
<g id="g-root-tf_143052mio7jsy-stroke" data-item-order="-1061100"></g>
<g id="g-root-cp_0_g-0_znt41aio0jk0-fill" data-item-order="-587872" transform="translate(218.04296875, 158.0)">
<g id="cp_0_g-0_znt41aio0jk0-fill-merged" stroke="none" fill="#bcbcbc" fill-opacity="1.0">
<g>
<path d="M97.601 130.621 H97.734C76.418 158.831 63.775 193.939 63.775 232C63.775 238.134 64.103 244.191 64.744 250.155C45.757 250.132 27.413 245.807 10.088 238.153C9.963 233.722 9.971 229.303 10.112 224.902C11.589 176.483 28.615 131.971 56.347 96.169C74.768 100.023 92.145 107.784 107.299 118.916C103.88 122.678 100.628 126.613 97.601 130.621 M231.957 63.818C212.693 63.818 194.185 67.057 176.949 73.02C172.209 74.607 167.512 76.47 162.88 78.559C157.018 60.486 155.451 41.693 157.372 22.84C180.683 14.527 205.791 10 231.957 10C253.36 10 274.056 13.029 293.64 18.682C297.857 19.941 302.062 21.298 306.237 22.787C308.164 41.633 306.607 60.421 300.758 78.489C279.756 69.062 256.469 63.818 231.957 63.818 M415.551 107.153L415.458 107.229C412.984 103.585 410.124 99.649 407.418 96.138C388.973 99.974 371.571 107.727 356.394 118.859C383.572 148.733 400.139 188.432 400.139 232C400.139 238.134 399.81 244.191 399.17 250.155C418.168 250.137 436.523 245.811 453.857 238.153C453.982 233.722 453.974 229.303 453.833 224.901C452.477 181.318 438.545 140.901 415.551 107.153 M169.687 445.148C182.374 431.18 191.905 414.647 197.637 396.686C192.66 395.653 187.716 394.381 182.911 392.918C182.911 392.918 182.911 392.918 182.911 392.918C141.606 380.345 107.04 352.305 85.959 315.543C70.683 326.537 57.931 340.692 48.584 357.048C51.087 360.707 53.946 364.644 56.647 368.123C82.349 401.272 117.276 426.902 157.561 441.227C160.818 442.383 164.327 443.533 167.692 444.556C168.356 444.756 169.021 444.954 169.687 445.148 M307.251 440.906C347.163 426.518 381.766 401.019 407.326 368.14C409.999 364.643 412.858 360.707 415.361 357.048C406.009 340.684 393.25 326.524 377.964 315.527C354.431 356.573 314.089 386.75 266.324 396.668C272.21 414.751 282.002 430.889 294.655 445.022C298.908 443.772 303.108 442.399 307.251 440.906C307.251 440.906 307.251 440.906 307.251 440.906"></path>
</g>
</g>
</g>
<g id="g-root-cp_0_g-0_znt41aio0jk0-stroke" data-item-order="-587872" transform="translate(218.04296875, 158.0)">
<g id="cp_0_g-0_znt41aio0jk0-stroke" fill="none" stroke-linecap="round" stroke-linejoin="round" stroke-miterlimit="4" stroke="#484848" stroke-width="2" stroke-opacity="1.0">
<g>
<path d="M 97.600531 130.6209L 97.734331 130.6462C 76.418431 158.8306 63.775131 193.9388 63.775131 232C 63.775131 238.1339 64.103431 244.1912 64.743631 250.1551C 45.757231 250.1321 27.412831 245.8074 10.088431 238.1529C 9.962831 233.7219 9.971431 229.3031 10.111631 224.9016L 10.068131 224.9041C 11.588631 176.4825 28.615231 131.9708 56.347231 96.1694C 74.768031 100.0228 92.144931 107.7842 107.299431 118.9165C 103.880431 122.6778 100.628231 126.6132 97.600531 130.6209ZM 231.956931 63.8182C 212.692731 63.8182 194.185131 67.0571 176.948831 73.02L 176.955731 72.966C 172.209431 74.6068 167.512531 76.4705 162.879531 78.5593C 157.017531 60.4864 155.451531 41.6929 157.372431 22.8397C 180.683031 14.5267 205.791331 10 231.956931 10C 253.360431 10 274.056431 13.0289 293.639731 18.6816L 293.627231 18.7137C 297.856631 19.9406 302.061831 21.2979 306.237131 22.7866C 308.163931 41.6332 306.606931 60.4209 300.758131 78.4893C 279.756231 69.0621 256.468931 63.8182 231.956931 63.8182ZM 415.551231 107.1531L 415.458331 107.2291C 412.984331 103.5854 410.124031 99.6495 407.417531 96.1382C 388.972931 99.9741 371.571131 107.7273 356.394031 118.8588C 383.571831 148.7326 400.138731 188.4316 400.138731 232C 400.138731 238.1339 399.810331 244.191 399.170231 250.1549C 418.167631 250.1366 436.522731 245.8113 453.856631 238.1527C 453.982231 233.7217 453.973631 229.3028 453.833431 224.9014L 453.845631 224.902C 452.476631 181.3177 438.544931 140.9012 415.551231 107.1531ZM 169.686631 445.148C 182.374231 431.1799 191.905331 414.6473 197.637231 396.6864C 192.660331 395.653 187.716031 394.3809 182.910931 392.9182L 182.910931 392.9182C 141.606131 380.3451 107.040331 352.3045 85.959231 315.5429C 70.682531 326.5374 57.931431 340.6916 48.583531 357.048C 51.086631 360.7071 53.946031 364.6436 56.646831 368.1225L 56.598131 368.1538C 82.349231 401.272 117.275731 426.9021 157.560831 441.2274C 160.817631 442.3832 164.327431 443.5333 167.692531 444.5561C 168.355931 444.7564 169.020631 444.9537 169.686631 445.148ZM 307.251031 440.9058C 347.162631 426.5184 381.765731 401.0186 407.326231 368.1403L 407.298231 368.1223C 409.999031 364.6434 412.858431 360.7068 415.361531 357.0478C 406.009231 340.6835 393.250331 326.5236 377.963831 315.5269C 354.431531 356.5734 314.088631 386.7498 266.324031 396.6675C 272.210131 414.7511 282.002431 430.889 294.655231 445.0218C 298.908131 443.772 303.108331 442.3992 307.251031 440.9058L 307.251031 440.9058Z"></path>
</g>
</g>
</g>
<g id="g-root-cp_1_g-1_1qaq4ryio0jyh-fill" data-item-order="-587868" transform="translate(494.703125, 149.6749267578125)">
<g id="cp_1_g-1_1qaq4ryio0jyh-fill-merged" stroke="none" fill="url(#gradient-fcaa5f-284141256)" fill-opacity="1.0">
<g>
<path d="M79.656 127.242C74.807 130.76 70.186 134.707 65.765 139.011C72.545 140.753 80.707 140.591 89.355 138.946C86.327 134.938 83.075 131.003 79.656 127.242 M138.799 115.554C144.081 111.242 148.671 106.564 152.209 101.695C145.007 102.297 137.848 102.989 130.758 104.463C133.465 107.975 136.325 111.911 138.799 115.554 M17.225 103.744C26.242 107.854 34.931 112.9 43.259 118.951C51.57 124.989 65.765 139.011 65.765 139.011C70.186 134.707 74.807 130.76 79.656 127.242C94.852 116.079 112.282 108.306 130.758 104.463C137.848 102.989 145.007 102.297 152.209 101.695C137.322 80.39 118.367 62.275 96.159 46.139C74.322 30.274 50.422 17.586 26.002 10C27.652 17.023 28.858 24.071 29.578 31.112C31.507 49.983 29.944 68.795 24.076 86.885C22.228 92.583 19.952 98.21 17.225 103.744 M26.002 10C22.464 14.87 19.437 20.683 16.968 27.039C21.197 28.266 25.403 29.623 29.578 31.112C28.858 24.071 27.652 17.023 26.002 10 M10 81.291C11.108 90.024 13.473 97.835 17.225 103.744C19.952 98.21 22.228 92.583 24.076 86.885C19.443 84.796 14.746 82.932 10 81.291"></path>
</g>
</g>
</g>
<g id="g-root-cp_1_g-1_1qaq4ryio0jyh-stroke" data-item-order="-587868" transform="translate(494.703125, 149.6749267578125)">
<g id="cp_1_g-1_1qaq4ryio0jyh-stroke" fill="none" stroke-linecap="round" stroke-linejoin="round" stroke-miterlimit="4" stroke="#484848" stroke-width="2" stroke-opacity="1.0">
<g>
<path d="M 79.6562 127.241608C 74.8074 130.760408 70.1864 134.706608 65.7654 139.011208C 72.545 140.752908 80.7072 140.591108 89.3552 138.946008C 86.3275 134.938408 83.0752 131.003008 79.6562 127.241608ZM 138.799 115.554208C 144.081 111.241608 148.6711 106.564208 152.209 101.694708C 145.0072 102.296608 137.8476 102.989008 130.7582 104.463308C 133.4647 107.974708 136.325 111.910508 138.799 115.554208ZM 17.2245 103.744208C 26.2421 107.854308 34.9305 112.900208 43.2589 118.951108C 51.5699 124.989408 65.7654 139.011208 65.7654 139.011208C 70.1864 134.706608 74.8074 130.760408 79.6562 127.241608C 94.8518 116.079208 112.2819 108.305908 130.7582 104.463308C 137.8476 102.989008 145.0072 102.296608 152.209 101.694708C 137.3221 80.389508 118.3675 62.274508 96.1591 46.139208C 74.3223 30.273808 50.4219 17.586108 26.0021 10.000008C 27.6521 17.022508 28.8581 24.071208 29.5779 31.111708C 31.5071 49.982708 29.9436 68.794608 24.0761 86.884508C 22.2278 92.582908 19.9524 98.209808 17.2245 103.744208ZM 26.0021 10.000008C 22.4642 14.869608 19.4373 20.682708 16.968 27.038908C 21.1973 28.265708 25.4026 29.623008 29.5779 31.111708C 28.8581 24.071208 27.6521 17.022508 26.0021 10.000008ZM 10 81.291208C 11.1079 90.024208 13.473 97.834608 17.2245 103.744208C 19.9524 98.209808 22.2278 92.582908 24.0761 86.884508C 19.4432 84.795608 14.7462 82.931908 10 81.291208Z"></path>
</g>
</g>
</g>
<g id="g-root-cp_2_g-2_1uqjmweio0kci-fill" data-item-order="-587850" transform="translate(570.4630126953125, 372.9010009765625)">
<g id="cp_2_g-2_1uqjmweio0kci-fill-merged" stroke="none" fill="url(#gradient-fe8884-345532732)" fill-opacity="1.0">
<g>
<path d="M25.486 100.584C20.641 97.06 15.46 93.885 10 91.01C10.439 97.996 13.115 105.709 17.352 113.426C20.228 109.308 22.965 104.998 25.486 100.584 M54.877 153.221C60.611 156.912 66.478 159.832 72.203 161.692C69.405 155.029 66.534 148.433 62.941 142.146C60.438 145.805 57.578 149.742 54.877 153.221 M28.541 33.947C27.419 43.794 25.305 53.616 22.123 63.407C18.949 73.177 10 91.01 10 91.01C15.46 93.885 20.641 97.06 25.486 100.584C40.798 111.587 53.577 125.762 62.941 142.146C66.534 148.433 69.405 155.029 72.203 161.692C87.865 140.95 99.236 117.325 107.719 91.218C116.06 65.547 120.741 38.896 120.409 13.327C114.24 17.066 107.909 20.391 101.436 23.251C84.085 30.918 65.71 35.244 46.693 35.254C40.702 35.257 34.647 34.831 28.541 33.947 M120.409 13.327C114.685 11.467 108.221 10.384 101.413 10C101.553 14.401 101.562 18.82 101.436 23.251C107.909 20.391 114.24 17.066 120.409 13.327 M47.663 20.138C39.699 23.89 33.002 28.553 28.541 33.947C34.647 34.831 40.702 35.257 46.693 35.254C47.248 30.202 47.569 25.159 47.663 20.138"></path>
</g>
</g>
</g>
<g id="g-root-cp_2_g-2_1uqjmweio0kci-stroke" data-item-order="-587850" transform="translate(570.4630126953125, 372.9010009765625)">
<g id="cp_2_g-2_1uqjmweio0kci-stroke" fill="none" stroke-linecap="round" stroke-linejoin="round" stroke-miterlimit="4" stroke="#484848" stroke-width="2" stroke-opacity="1.0">
<g>
<path d="M 25.4861 100.5844C 20.6412 97.0603 15.4601 93.8849 10 91.0105C 10.4385 97.9965 13.1147 105.7092 17.3516 113.4256C 20.2275 109.3076 22.9653 104.9984 25.4861 100.5844ZM 54.8775 153.2209C 60.6113 156.9117 66.4782 159.8318 72.2027 161.6918C 69.4047 155.0285 66.5338 148.4332 62.9409 142.1464C 60.4377 145.8055 57.5784 149.742 54.8775 153.2209ZM 28.5409 33.9473C 27.4186 43.7936 25.3046 53.616 22.1234 63.4066C 18.9489 73.1768 10 91.0105 10 91.0105C 15.4601 93.8849 20.6412 97.0603 25.4861 100.5844C 40.7979 111.5869 53.5769 125.7618 62.9409 142.1464C 66.5338 148.4332 69.4047 155.0285 72.2027 161.6918C 87.8648 140.9498 99.2358 117.3251 107.7187 91.2176C 116.0596 65.5468 120.7407 38.8955 120.4094 13.3267C 114.2405 17.066 107.9094 20.3911 101.4359 23.2513C 84.0848 30.9176 65.7104 35.2438 46.6928 35.2536C 40.7021 35.2566 34.6475 34.8314 28.5409 33.9473ZM 120.4094 13.3267C 114.6849 11.4667 108.2209 10.3843 101.4128 10C 101.5529 14.4014 101.5615 18.8203 101.4359 23.2513C 107.9094 20.3911 114.2405 17.066 120.4094 13.3267ZM 47.6626 20.1379C 39.6993 23.8903 33.002 28.5532 28.5409 33.9473C 34.6475 34.8314 40.7021 35.2566 46.6928 35.2536C 47.2478 30.2019 47.5688 25.1589 47.6626 20.1379Z"></path>
</g>
</g>
</g>
<g id="g-root-cp_3_g-3_dgplf2io0kxz-fill" data-item-order="-587834" transform="translate(362.0, 526.999755859375)">
<g id="cp_3_g-3_dgplf2io0kxz-fill-merged" stroke="none" fill="url(#gradient-fb85cc-419033426)" fill-opacity="1.0">
<g>
<path d="M53.68 27.687C55.535 21.99 56.954 16.081 58 10C51.492 12.576 44.983 17.504 38.954 23.919C43.759 25.381 48.703 26.653 53.68 27.687 M12.703 71.905C10.964 78.499 10 84.981 10 91C15.472 86.28 20.858 81.511 25.727 76.152C21.473 74.902 16.846 73.399 12.703 71.905 M118 10C108.289 11.975 98.294 13 87.999 13C77.726 13 58 10 58 10C56.954 16.081 55.535 21.99 53.68 27.687C47.948 45.649 38.416 62.183 25.727 76.152C20.858 81.511 15.472 86.28 10 91C34.567 99.486 60.549 103 88 103C114.992 103 141.785 99.216 166 91C160.538 86.288 155.419 81.295 150.698 76.022C138.045 61.889 128.253 45.751 122.367 27.667C120.513 21.971 119.046 16.081 118 10 M166 91C166 84.981 165.032 78.499 163.294 71.905C159.151 73.398 154.951 74.772 150.698 76.022C155.419 81.295 160.538 86.288 166 91 M137.042 23.918C131.013 17.504 124.509 12.576 118 10C119.046 16.081 120.513 21.971 122.367 27.667C127.343 26.634 132.238 25.381 137.042 23.918"></path>
</g>
</g>
</g>
<g id="g-root-cp_3_g-3_dgplf2io0kxz-stroke" data-item-order="-587834" transform="translate(362.0, 526.999755859375)">
<g id="cp_3_g-3_dgplf2io0kxz-stroke" fill="none" stroke-linecap="round" stroke-linejoin="round" stroke-miterlimit="4" stroke="#484848" stroke-width="2" stroke-opacity="1.0">
<g>
<path d="M 53.6803 27.6866C 55.5348 21.9899 56.9537 16.0811 58.0002 10C 51.4916 12.5759 44.9834 17.5044 38.954 23.9185C 43.7591 25.3811 48.7034 26.6533 53.6803 27.6866ZM 12.7025 71.9052C 10.9642 78.4988 10 84.9809 10 91C 15.4725 86.2799 20.8579 81.5115 25.7267 76.1516C 21.4732 74.9017 16.8457 73.3988 12.7025 71.9052ZM 118 10C 108.2888 11.9753 98.2939 13 87.9994 13C 77.7264 13 58.0002 10 58.0002 10C 56.9537 16.0811 55.5348 21.9899 53.6803 27.6866C 47.9479 45.649 38.4158 62.1828 25.7267 76.1516C 20.8579 81.5115 15.4725 86.2799 10 91C 34.5666 99.4859 60.549 103 87.9999 103C 114.9918 103 141.7853 99.2163 166.0003 91C 160.5377 86.2885 155.4189 81.2948 150.6983 76.022C 138.0454 61.8891 128.2529 45.751 122.3669 27.6671C 120.5127 21.9705 119.0462 16.0809 118 10ZM 166.0003 91C 166.0003 84.9809 165.0322 78.4988 163.2939 71.9051C 159.1512 73.3985 154.9512 74.7722 150.6983 76.022C 155.4189 81.2948 160.5377 86.2885 166.0003 91ZM 137.0424 23.9184C 131.0129 17.5044 124.5086 12.5759 118 10C 119.0462 16.0809 120.5127 21.9705 122.3669 27.6671C 127.3428 26.6339 132.2382 25.3808 137.0424 23.9184Z"></path>
</g>
</g>
</g>
<g id="g-root-cp_4_g-4_v7zlwuio0lc6-fill" data-item-order="-587818" transform="translate(199.14065551757812, 372.9019775390625)">
<g id="cp_4_g-4_v7zlwuio0lc6-fill-merged" stroke="none" fill="url(#gradient-d98afd-356709479)" fill-opacity="1.0">
<g>
<path d="M104.94 100.584C109.785 97.06 114.966 93.885 120.426 91.01C119.987 97.996 117.311 105.709 113.074 113.426C110.198 109.308 107.461 104.998 104.94 100.584 M75.548 153.221C69.815 156.912 63.948 159.832 58.223 161.692C61.021 155.029 63.892 148.433 67.485 142.146C69.988 145.805 72.847 149.742 75.548 153.221 M101.885 33.947C103.007 43.794 105.121 53.616 108.302 63.407C111.477 73.177 120.426 91.01 120.426 91.01C114.966 93.885 109.785 97.06 104.94 100.584C89.628 111.587 76.849 125.762 67.485 142.146C63.892 148.433 61.021 155.029 58.223 161.692C42.561 140.95 31.19 117.325 22.707 91.218C14.366 65.547 9.685 38.896 10.016 13.327C16.185 17.066 22.516 20.391 28.99 23.251C46.341 30.918 64.715 35.244 83.733 35.254C89.724 35.257 95.778 34.831 101.885 33.947 M10.016 13.327C15.741 11.467 22.205 10.384 29.013 10C28.873 14.401 28.864 18.82 28.99 23.251C22.516 20.391 16.185 17.066 10.016 13.327 M82.763 20.138C90.727 23.89 97.424 28.553 101.885 33.947C95.778 34.831 89.724 35.257 83.733 35.254C83.178 30.202 82.857 25.159 82.763 20.138"></path>
</g>
</g>
</g>
<g id="g-root-cp_4_g-4_v7zlwuio0lc6-stroke" data-item-order="-587818" transform="translate(199.14065551757812, 372.9019775390625)">
<g id="cp_4_g-4_v7zlwuio0lc6-stroke" fill="none" stroke-linecap="round" stroke-linejoin="round" stroke-miterlimit="4" stroke="#484848" stroke-width="2" stroke-opacity="1.0">
<g>
<path d="M 104.939769 100.5844C 109.784669 97.0603 114.965769 93.8849 120.425869 91.0105C 119.987369 97.9965 117.311169 105.7092 113.074269 113.4256C 110.198369 109.3076 107.460569 104.9984 104.939769 100.5844ZM 75.548269 153.2209C 69.814569 156.9117 63.947669 159.8318 58.223169 161.6918C 61.021169 155.0285 63.892069 148.4332 67.484969 142.1464C 69.988169 145.8055 72.847469 149.742 75.548269 153.2209ZM 101.884869 33.9473C 103.007269 43.7936 105.121269 53.616 108.302469 63.4066C 111.476969 73.1768 120.425869 91.0105 120.425869 91.0105C 114.965769 93.8849 109.784669 97.0603 104.939769 100.5844C 89.627969 111.5869 76.848969 125.7618 67.484969 142.1464C 63.892069 148.4332 61.021169 155.0285 58.223169 161.6918C 42.561069 140.9498 31.189969 117.3251 22.707169 91.2176C 14.366269 65.5468 9.685169 38.8955 10.016469 13.3267C 16.185369 17.066 22.516469 20.3911 28.989969 23.2513C 46.341069 30.9176 64.715369 35.2438 83.733069 35.2536C 89.723769 35.2566 95.778369 34.8314 101.884869 33.9473ZM 10.016469 13.3267C 15.740969 11.4667 22.204969 10.3843 29.013069 10C 28.872869 14.4014 28.864269 18.8203 28.989969 23.2513C 22.516469 20.3911 16.185369 17.066 10.016469 13.3267ZM 82.763269 20.1379C 90.726569 23.8903 97.423869 28.5532 101.884869 33.9473C 95.778369 34.8314 89.723769 35.2566 83.733069 35.2536C 83.178069 30.2019 82.857069 25.1589 82.763269 20.1379Z"></path>
</g>
</g>
</g>
<g id="g-root-cp_5_g-5_18jg4a6io0lqn-fill" data-item-order="-587802" transform="translate(242.7890625, 149.6748046875)">
<defs>
<linearGradient id="gradient-fcaa5f-284141256" x2="0" y2="1">
<stop offset="0" stop-color="#ffbf84"></stop>
<stop offset="1" stop-color="#f99539"></stop>
</linearGradient>
<linearGradient id="gradient-fe8884-345532732" x2="0" y2="1">
<stop offset="0" stop-color="#ffa6a3"></stop>
<stop offset="1" stop-color="#fd6a65"></stop>
</linearGradient>
<linearGradient id="gradient-fb85cc-419033426" x2="0" y2="1">
<stop offset="0" stop-color="#ffa1da"></stop>
<stop offset="1" stop-color="#f669be"></stop>
</linearGradient>
<linearGradient id="gradient-d98afd-356709479" x2="0" y2="1">
<stop offset="0" stop-color="#e4a9ff"></stop>
<stop offset="1" stop-color="#cd6afb"></stop>
</linearGradient>
<linearGradient id="gradient-a28bff-185831087" x2="0" y2="1">
<stop offset="0" stop-color="#bcabff"></stop>
<stop offset="1" stop-color="#886aff"></stop>
</linearGradient>
</defs>
<g id="cp_5_g-5_18jg4a6io0lqn-fill-merged" stroke="none" fill="url(#gradient-a28bff-185831087)" fill-opacity="1.0">
<g>
<path d="M82.553 127.242C87.402 130.76 92.023 134.707 96.444 139.011C89.664 140.753 81.502 140.591 72.854 138.946C75.882 134.938 79.134 131.003 82.553 127.242 M23.41 115.554C18.128 111.242 13.538 106.564 10 101.695C17.202 102.297 24.361 102.989 31.451 104.463C28.744 107.975 25.884 111.911 23.41 115.554 M144.984 103.744C135.967 107.854 127.278 112.9 118.95 118.951C110.639 124.989 96.444 139.011 96.444 139.011C92.023 134.707 87.402 130.76 82.553 127.242C67.357 116.079 49.927 108.306 31.451 104.463C24.361 102.989 17.202 102.297 10 101.695C24.887 80.39 43.841 62.275 66.05 46.139C87.887 30.274 111.787 17.586 136.207 10C134.557 17.023 133.351 24.071 132.631 31.112C130.702 49.983 132.265 68.795 138.133 86.885C139.981 92.583 142.257 98.21 144.984 103.744 M136.207 10C139.745 14.87 142.772 20.683 145.241 27.039C141.012 28.266 136.806 29.623 132.631 31.112C133.351 24.071 134.557 17.023 136.207 10 M152.209 81.291C151.101 90.024 148.736 97.835 144.984 103.744C142.257 98.21 139.981 92.583 138.133 86.885C142.766 84.796 147.463 82.932 152.209 81.291"></path>
</g>
</g>
</g>
<g id="g-root-cp_5_g-5_18jg4a6io0lqn-stroke" data-item-order="-587802" transform="translate(242.7890625, 149.6748046875)">
<g id="cp_5_g-5_18jg4a6io0lqn-stroke" fill="none" stroke-linecap="round" stroke-linejoin="round" stroke-miterlimit="4" stroke="#484848" stroke-width="2" stroke-opacity="1.0">
<g>
<path d="M 82.5528 127.241608C 87.401601 130.760408 92.022601 134.706608 96.443601 139.011208C 89.664 140.752908 81.501801 140.591108 72.853801 138.946008C 75.8815 134.938408 79.133801 131.003008 82.5528 127.241608ZM 23.41 115.554208C 18.128001 111.241608 13.537901 106.564208 10 101.694708C 17.2018 102.296608 24.361401 102.989008 31.450801 104.463308C 28.744301 107.974708 25.884001 111.910508 23.41 115.554208ZM 144.984501 103.744208C 135.966901 107.854308 127.278501 112.900208 118.950101 118.951108C 110.639099 124.989408 96.443601 139.011208 96.443601 139.011208C 92.022601 134.706608 87.401601 130.760408 82.5528 127.241608C 67.357201 116.079208 49.9271 108.305908 31.450801 104.463308C 24.361401 102.989008 17.2018 102.296608 10 101.694708C 24.8869 80.389508 43.8415 62.274508 66.049901 46.139208C 87.8867 30.273808 111.787101 17.586108 136.206901 10.000008C 134.5569 17.022508 133.350901 24.071208 132.631101 31.111708C 130.701901 49.982708 132.265401 68.794608 138.132901 86.884508C 139.981201 92.582908 142.256601 98.209808 144.984501 103.744208ZM 136.206901 10.000008C 139.744801 14.869608 142.771701 20.682708 145.241 27.038908C 141.011701 28.265708 136.806401 29.623008 132.631101 31.111708C 133.350901 24.071208 134.5569 17.022508 136.206901 10.000008ZM 152.209001 81.291208C 151.1011 90.024208 148.736001 97.834608 144.984501 103.744208C 142.256601 98.209808 139.981201 92.582908 138.132901 86.884508C 142.765801 84.795608 147.462801 82.931908 152.209001 81.291208Z"></path>
</g>
</g>
</g>
<g id="g-root-tx_chromeex_dhc2i6io0j61-fill" data-item-order="0" transform="translate(254.4375, 38.0)">
<g id="tx_chromeex_dhc2i6io0j61-fill-merged" stroke="none" fill="#484848" fill-opacity="1.0">
<g>
<text transform="translate(193.5625, 10.0)" style="font-size:25px; font-family:'Roboto', napkin-fallback, sans-serif; font-weight:bold; white-space:pre;">
<tspan x="-181.56" y="30" dominant-baseline="ideographic">Chrome Extension Popup Design</tspan>
</text>
</g>
</g>
</g>
<g id="g-root-tx_chromeex_dhc2i6io0j61-stroke" data-item-order="0" transform="translate(254.4375, 38.0)"></g>
<g id="g-root-tx_gradient_dl2x0uio0kqq-fill" data-item-order="0" transform="translate(650.0, 92.0)">
<g id="tx_gradient_dl2x0uio0kqq-fill-merged" stroke="none" fill="#de8431" fill-opacity="1.0">
<g>
<text transform="translate(10.0, 22.0)" style="font-size:20px; font-family:'Roboto', napkin-fallback, sans-serif; white-space:pre;">
<tspan x="2" y="12" dominant-baseline="ideographic">Gradient </tspan>
<tspan x="2" y="36" dominant-baseline="ideographic">Theme</tspan>
</text>
</g>
</g>
</g>
<g id="g-root-tx_gradient_dl2x0uio0kqq-stroke" data-item-order="0" transform="translate(650.0, 92.0)"></g>
<g id="g-root-tx_sunsetor_4pfwryio0l53-fill" data-item-order="0" transform="translate(650.0, 152.0)">
<g id="tx_sunsetor_4pfwryio0l53-fill-merged" stroke="none" fill="#484848" fill-opacity="1.0">
<g>
<text transform="translate(10.0, 28.0)" style="font-size:15px; font-family:'Roboto', napkin-fallback, sans-serif; white-space:pre;">
<tspan x="2" y="0" dominant-baseline="ideographic">Sunset orange to </tspan>
<tspan x="2" y="18" dominant-baseline="ideographic">coral pink </tspan>
<tspan x="2" y="36" dominant-baseline="ideographic">background</tspan>
</text>
</g>
</g>
</g>
<g id="g-root-tx_sunsetor_4pfwryio0l53-stroke" data-item-order="0" transform="translate(650.0, 152.0)"></g>
<g id="g-root-ic_sun_dl2x0uio0ljh-fill" data-item-order="0" transform="translate(530.0, 194.0)"></g>
<g id="g-root-ic_sun_dl2x0uio0ljh-stroke" data-item-order="0" transform="translate(530.0, 194.0)">
<g id="ic_sun_dl2x0uio0ljh-stroke" fill="none" stroke-linecap="round" stroke-linejoin="round" stroke-miterlimit="4" stroke="#484848" stroke-width="2" stroke-opacity="1.0">
<g>
<path d="M 35 56C 35 56.552284 34.552284 57 34 57L 23 57L 23 45L 29 39L 34.708 44.708C 34.894936 44.895412 34.999947 45.149296 35 45.414001ZM 29 39L 17.414 39C 17.149296 39.000053 16.895411 39.105064 16.708 39.292L 11 45L 11 56C 11 56.552284 11.447716 57 12 57L 23 57M 11 27L 57 27M 11 33L 57 33M 38.066002 39L 57 39M 35 51L 57 51M 35 27C 35 22.581722 38.581722 19 43 19C 47.418278 19 51 22.581722 51 27M 43 14L 43 11M 52.192001 17.808001L 54.313999 15.686M 33.807999 17.808001L 31.686001 15.686M 23 45L 11 45M 41 51L 41 57M 47 51L 47 57M 53 51L 53 57"></path>
</g>
</g>
</g>
<g id="g-root-tx_typograp_dl2x0uio3c3v-fill" data-item-order="0" transform="translate(698.0, 425.0)">
<g id="tx_typograp_dl2x0uio3c3v-fill-merged" stroke="none" fill="#e55753" fill-opacity="1.0">
<g>
<text transform="translate(10.0, 10.0)" style="font-size:20px; font-family:'Roboto', napkin-fallback, sans-serif; white-space:pre;">
<tspan x="2" y="24" dominant-baseline="ideographic">Typography</tspan>
</text>
</g>
</g>
</g>
<g id="g-root-tx_typograp_dl2x0uio3c3v-stroke" data-item-order="0" transform="translate(698.0, 425.0)"></g>
<g id="g-root-tx_boldmode_9meniio3caq-fill" data-item-order="0" transform="translate(698.0, 461.0)">
<g id="tx_boldmode_9meniio3caq-fill-merged" stroke="none" fill="#484848" fill-opacity="1.0">
<g>
<text transform="translate(10.0, 10.0)" style="font-size:15px; font-family:'Roboto', napkin-fallback, sans-serif; white-space:pre;">
<tspan x="2" y="18" dominant-baseline="ideographic">Bold modern font</tspan>
</text>
</g>
</g>
</g>
<g id="g-root-tx_boldmode_9meniio3caq-stroke" data-item-order="0" transform="translate(698.0, 461.0)"></g>
<g id="g-root-ic_scri_1lz9y9aio3cap-fill" data-item-order="0" transform="translate(602.0, 410.0)"></g>
<g id="g-root-ic_scri_1lz9y9aio3cap-stroke" data-item-order="0" transform="translate(602.0, 410.0)">
<g id="ic_scri_1lz9y9aio3cap-stroke" fill="none" stroke-linecap="round" stroke-linejoin="round" stroke-miterlimit="4" stroke="#484848" stroke-width="2" stroke-opacity="1.0">
<g>
<path d="M 13 11L 55 11C 55 11 57 11 57 13L 57 55C 57 55 57 57 55 57L 13 57C 13 57 11 57 11 55L 11 13C 11 13 11 11 13 11M 41 46C 41 48.761425 43.238575 51 46 51C 48.761425 51 51 48.761425 51 46C 51 43.240002 49 42 46 41C 43 40 41 38.760002 41 36C 41 33.238579 43.238575 31 46 31C 48.761425 31 51 33.238579 51 36M 24 31L 36 31M 30 31L 30 51"></path>
</g>
</g>
</g>
<g id="g-root-tx_timerrin_vrfyio4r9o-fill" data-item-order="0" transform="translate(389.96875, 644.0)">
<g id="tx_timerrin_vrfyio4r9o-fill-merged" stroke="none" fill="#de58a9" fill-opacity="1.0">
<g>
<text transform="translate(58.03125, 10.0)" style="font-size:20px; font-family:'Roboto', napkin-fallback, sans-serif; white-space:pre;">
<tspan x="-46.03" y="24" dominant-baseline="ideographic">Timer Ring</tspan>
</text>
</g>
</g>
</g>
<g id="g-root-tx_timerrin_vrfyio4r9o-stroke" data-item-order="0" transform="translate(389.96875, 644.0)"></g>
<g id="g-root-tx_glowingr_1q6ct66io4r9d-fill" data-item-order="0" transform="translate(383.2734375, 680.0)">
<g id="tx_glowingr_1q6ct66io4r9d-fill-merged" stroke="none" fill="#484848" fill-opacity="1.0">
<g>
<text transform="translate(64.7265625, 19.0)" style="font-size:15px; font-family:'Roboto', napkin-fallback, sans-serif; white-space:pre;">
<tspan x="-52.73" y="9" dominant-baseline="ideographic">Glowing ring for </tspan>
<tspan x="-47.39" y="27" dominant-baseline="ideographic">time indication</tspan>
</text>
</g>
</g>
</g>
<g id="g-root-tx_glowingr_1q6ct66io4r9d-stroke" data-item-order="0" transform="translate(383.2734375, 680.0)"></g>
<g id="g-root-ic_midn_1lqjb1qio4rgl-fill" data-item-order="0" transform="translate(416.0, 554.0)"></g>
<g id="g-root-ic_midn_1lqjb1qio4rgl-stroke" data-item-order="0" transform="translate(416.0, 554.0)">
<g id="ic_midn_1lqjb1qio4rgl-stroke" fill="none" stroke-linecap="round" stroke-linejoin="round" stroke-miterlimit="4" stroke="#484848" stroke-width="2" stroke-opacity="1.0">
<g>
<path d="M 34.054001 53.006001L 34.054001 49.006001M 34.054001 15.006001L 34.054001 19.006001M 53.054001 34.006001L 49.054001 34.006001M 15.054 34.006001L 19.054001 34.006001M 47.487999 20.571999L 44.66 23.4M 20.618 47.442001L 23.448 44.613998M 20.618 20.571999L 23.448 23.4M 47.487999 47.442001L 44.66 44.613998M 11.054 34.006001C 11.054001 46.708549 21.351452 57.006001 34.054001 57.006001C 46.75655 57.006001 57.054001 46.708549 57.054001 34.006001C 57.054001 21.303452 46.75655 11.006001 34.054001 11.006001C 21.351452 11.006001 11.054001 21.303452 11.054001 34.006001Z"></path>
</g>
</g>
</g>
<g id="g-root-tx_energeti_1uto0byio65ft-fill" data-item-order="0" transform="translate(89.79690551757812, 404.0)">
<g id="tx_energeti_1uto0byio65ft-fill-merged" stroke="none" fill="#ba5de5" fill-opacity="1.0">
<g>
<text transform="translate(98.203125, 22.0)" style="font-size:20px; font-family:'Roboto', napkin-fallback, sans-serif; white-space:pre;">
<tspan x="-86.2" y="12" dominant-baseline="ideographic">Energetic </tspan>
<tspan x="-59.13" y="36" dominant-baseline="ideographic">Design</tspan>
</text>
</g>
</g>
</g>
<g id="g-root-tx_energeti_1uto0byio65ft-stroke" data-item-order="0" transform="translate(89.79690551757812, 404.0)"></g>
<g id="g-root-tx_livelyan_1uto0byio65mr-fill" data-item-order="0" transform="translate(42.796905517578125, 464.0)">
<g id="tx_livelyan_1uto0byio65mr-fill-merged" stroke="none" fill="#484848" fill-opacity="1.0">
<g>
<text transform="translate(145.203125, 19.0)" style="font-size:15px; font-family:'Roboto', napkin-fallback, sans-serif; white-space:pre;">
<tspan x="-133.2" y="9" dominant-baseline="ideographic">Lively and engaging </tspan>
<tspan x="-38.41" y="27" dominant-baseline="ideographic">layout</tspan>
</text>
</g>
</g>
</g>
<g id="g-root-tx_livelyan_1uto0byio65mr-stroke" data-item-order="0" transform="translate(42.796905517578125, 464.0)"></g>
<g id="g-root-ic_floa_1uto0byio65tx-fill" data-item-order="0" transform="translate(224.0, 416.0)"></g>
<g id="g-root-ic_floa_1uto0byio65tx-stroke" data-item-order="0" transform="translate(224.0, 416.0)">
<g id="ic_floa_1uto0byio65tx-stroke" fill="none" stroke-linecap="round" stroke-linejoin="round" stroke-miterlimit="4" stroke="#484848" stroke-width="2" stroke-opacity="1.0">
<g>
<path d="M 11 34C 11 46.702549 21.297451 57 34 57C 46.702549 57 57 46.702549 57 34C 57 21.297451 46.702549 11 34 11C 21.297451 11 11 21.297451 11 34ZM 26 34C 26 38.418278 29.581722 42 34 42C 38.418278 42 42 38.418278 42 34C 42 29.581722 38.418278 26 34 26C 29.581722 26 26 29.581722 26 34ZM 37 22.380001C 41.225761 23.474302 44.525696 26.774233 45.619999 30.999998L 52.762001 30.988001C 51.458832 22.891809 45.111858 16.543221 37.015999 15.238ZM 31 15.234C 22.893269 16.536842 16.536842 22.893269 15.233999 30.999998L 22.378 31C 23.483971 26.781843 26.780561 23.489075 31.000002 22.388ZM 37 52.764C 45.107014 51.463154 51.464127 45.10685 52.766003 37L 45.619999 37C 44.528706 41.212967 41.245392 44.506992 37.035999 45.612ZM 31 45.619999C 26.775114 44.524162 23.475842 41.224888 22.380001 37L 15.242001 37.014C 16.545465 45.114456 22.898884 51.464649 31 52.764Z"></path>
</g>
</g>
</g>
<g id="g-root-tx_neonacce_4otfouio65mt-fill" data-item-order="0" transform="translate(101.296875, 134.0)">
<g id="tx_neonacce_4otfouio65mt-fill-merged" stroke="none" fill="#7f64ea" fill-opacity="1.0">
<g>
<text transform="translate(134.703125, 10.0)" style="font-size:20px; font-family:'Roboto', napkin-fallback, sans-serif; white-space:pre;">
<tspan x="-122.7" y="24" dominant-baseline="ideographic">Neon Accents</tspan>
</text>
</g>
</g>
</g>
<g id="g-root-tx_neonacce_4otfouio65mt-stroke" data-item-order="0" transform="translate(101.296875, 134.0)"></g>
<g id="g-root-tx_neonhigh_1uuahf2io65ms-fill" data-item-order="0" transform="translate(97.3125, 170.0)">
<g id="tx_neonhigh_1uuahf2io65ms-fill-merged" stroke="none" fill="#484848" fill-opacity="1.0">
<g>
<text transform="translate(138.6875, 19.0)" style="font-size:15px; font-family:'Roboto', napkin-fallback, sans-serif; white-space:pre;">
<tspan x="-126.69" y="9" dominant-baseline="ideographic">Neon highlights on </tspan>
<tspan x="-48.94" y="27" dominant-baseline="ideographic">buttons</tspan>
</text>
</g>
</g>
</g>
<g id="g-root-tx_neonhigh_1uuahf2io65ms-stroke" data-item-order="0" transform="translate(97.3125, 170.0)"></g>
<g id="g-root-ic_touc_4otfouio660x-fill" data-item-order="0" transform="translate(302.0, 200.0)"></g>
<g id="g-root-ic_touc_4otfouio660x-stroke" data-item-order="0" transform="translate(302.0, 200.0)">
<g id="ic_touc_4otfouio660x-stroke" fill="none" stroke-linecap="round" stroke-linejoin="round" stroke-miterlimit="4" stroke="#484848" stroke-width="2" stroke-opacity="1.0">
<g>
<path d="M 35.9492 27.2064C 38.737198 25.2216 39.413799 21.20228 37.429001 18.41416C 35.757401 16.06628 33.499199 14.13624 30.716 13.022L 28.43516 11.992334M 32.619801 33.711201L 32.860199 34.048599C 33.9048 35.516197 33.566601 37.525803 32.098999 38.5704C 30.631599 39.614998 28.621981 39.276802 27.57736 37.809402L 26.74164 36.635399L 27.05504 37.0756C 28.099661 38.542999 27.76144 40.552799 26.294001 41.597401C 24.826561 42.641998 22.816921 42.303799 21.77228 40.836399L 20.72764 39.368999C 21.77228 40.836399 21.43404 42.846001 19.966621 43.890598C 18.49918 44.9352 16.489521 44.597 15.444901 43.129601L 11.631978 37.773399M 32.619801 33.711201L 32.024399 32.874802M 32.619801 33.711201L 40.068001 44.174C 41.112801 45.641399 43.122398 45.979599 44.589802 44.935001C 46.057201 43.8904 46.395401 41.880798 45.3508 40.4132L 32.606201 22.51062M 10 10M 52.117199 41.765198L 56.472801 42.559399M 10 10M 40.546799 50.958L 40.527599 54.820599M 10 10M 46.2812 50.375L 47.549198 54.237598M 10 10M 50.4492 46.7924L 54.292198 48.918201"></path>
</g>
</g>
</g>
</g>
</g>
<path id="w92rijyio7mkj" d="M65.283 12.757a.35.35 0 0 0 .584.157l5.203-5.141-6.183 3.523.396 1.461zm-2.216-11.7a.35.35 0 0 0-.522.305v3.111l3.276-1.868-2.754-1.548zm3.728 2.105l-4.25 2.421v2.445l6.391-3.644-2.141-1.222zm4.708 3.303a.35.35 0 0 0 0-.609l-1.592-.9-7.365 4.199v1.782a.35.35 0 0 0 .523.305l8.435-4.777z M44.542 2.513c0-.433.355-.783.792-.783s.792.35.792.783-.355.783-.792.783-.792-.35-.792-.783zm59.171 0c0-.433.355-.783.792-.783s.792.35.792.783-.355.783-.792.783-.792-.35-.792-.783zm-85.951 7.636h-1.27v-.487c-.276.201-.864.609-1.881.609-1.202 0-2.274-.794-2.137-2.078.118-1.106 1.153-1.584 1.848-1.727l2.17-.345c0-.539-.29-.956-1.064-1.006s-1.21.305-1.571 1.017l-1.124-.605c1.218-2.631 5.029-1.764 5.029.414v4.207zm-1.27-2.86c.006.396-.062 1.112-.819 1.59-.587.37-1.841.299-1.903-.395-.049-.555.461-.791.906-.898l1.816-.297zm72.662 2.86h-1.27v-.487c-.276.201-.864.609-1.881.609-1.202 0-2.274-.794-2.137-2.078.118-1.106 1.153-1.584 1.848-1.727l2.17-.345c0-.539-.29-.956-1.064-1.006s-1.21.305-1.571 1.017l-1.124-.605c1.218-2.631 5.029-1.764 5.029.414v4.207zm-1.27-2.86c.006.396-.062 1.112-.82 1.59-.587.37-1.841.299-1.903-.395-.049-.555.461-.791.906-.898l1.816-.297zM99.096 10.149H97.85v-8.45h1.246v4.895l2.68-2.559h1.738l-2.633 2.535 2.715 3.578h-1.556l-2.077-2.707-.867.844v1.863zm6.053-6.114h-1.255v6.113h1.255V4.035zm-59.2 0h-1.255v6.113h1.255V4.035zm5.584 6.113V1.697h1.255v2.695c.361-.346 1-.485 1.47-.485 1.452 0 2.477 1.082 2.457 2.448v3.792h-1.27v-3.68c0-.408-.214-1.339-1.315-1.339-.968 0-1.342.756-1.342 1.339v3.681h-1.255zm-4.76-4.894V4.039h.621a.45.45 0 0 0 .45-.45v-.855h1.251v1.305h1.309v1.215h-1.309v3.109c0 .293.105.664.648.664.365 0 .531-.035.736-.07v1.137s-.361.113-.857.113c-1.398 0-1.777-1.051-1.777-1.788V5.254h-1.071zM36.528 4.039h-1.394l2.191 6.106h1.125l1.234-3.918 1.238 3.918h1.129l2.188-6.106h-1.383l-1.359 3.93-1.256-3.93h-1.124l-1.242 3.957-1.348-3.957zM26.212 7.141c-.02 1.566 1.187 3.129 3.223 3.129 1.566 0 2.383-.918 2.734-1.719L31.172 8c-.315.399-.801 1.094-1.738 1.094-1.145 0-1.825-.781-1.891-1.52h4.625c.074-.284.148-.995-.03-1.559-.336-1.064-1.221-2.102-2.839-2.102s-3.088 1.152-3.088 3.227zm1.363-.75h3.348c-.055-.43-.566-1.301-1.623-1.301a1.79 1.79 0 0 0-1.725 1.301zm-8.758.75c.038 1.758 1.277 3.133 3.145 3.133 1.074 0 1.723-.477 1.961-.672v.547h1.242V1.703h-1.258v2.888c-.414-.36-1.062-.68-1.93-.68-1.91 0-3.198 1.473-3.16 3.23zm1.309-.08c0 1.119.723 1.978 1.836 1.978a1.88 1.88 0 0 0 1.94-1.904c0-1.371-1.011-1.99-1.972-1.99s-1.805.798-1.805 1.916zm76.683-.028C96.771 5.275 95.532 3.9 93.664 3.9c-1.074 0-1.723.477-1.961.672v-.547h-1.242v8.22h1.258V9.583c.414.36 1.063.68 1.93.68 1.91 0 3.198-1.473 3.16-3.23zm-1.309.08c0-1.119-.723-1.978-1.836-1.978a1.88 1.88 0 0 0-1.94 1.904c0 1.371 1.011 1.99 1.972 1.99S95.5 8.231 95.5 7.113zM106.441 10.173V4.036h1.254v.382c.361-.346 1-.485 1.47-.485 1.452 0 2.477 1.082 2.457 2.448v3.792h-1.27V6.492c0-.408-.214-1.339-1.315-1.339-.969 0-1.342.756-1.342 1.339v3.681h-1.254zm-30.383-.021V1.824h1.084l4.215 5.777V1.824h1.32v8.328h-1.094l-4.207-5.796v5.796h-1.319zM5.24 10.149H4V2.377h1.014l2.664 3.597 2.654-3.592h1.03v7.766h-1.256V4.762L7.678 8.068 5.24 4.742v5.407z" transform="translate(764.0, 752.0)" fill="#80808088" stroke="none"></path>
</svg>